# xmcd
#
# Track frame offsets: 
#        150
#        18184
#        36991
#        59684
#        85133
#        100746
#        125309
#        145334
#        167334
#        191459
#        203664
#        224184
#        245909
#        263409
#        281109
#        303234
#
# Disc length: 4452 seconds
#
# Revision: 2
# Processed by: cddbd v1.5.2PL0 Copyright (c) Steve Scherf et al.
# Submitted via: ExactAudioCopy v0.99pb5
#
DISCID=e7116210
DTITLE=Various Artist - Bar Jazz Connection 2 [CD1)
DYEAR=2005
DGENRE=Jazz
TTITLE0=Chris Botti - A Thousand Kisses Deep
TTITLE1=The Rippingtons - Backstabbers
TTITLE2=Dave Grusin - Fascinationg Rhythm
TTITLE3=Fourplay - Fields Of Gold
TTITLE4=Jonathan Cain - Elegance Of The Catwalk
TTITLE5=David Benoit - Le Grand
TTITLE6=Gerald Albright - 4 On The Floor
TTITLE7=Dexter Gordon - How Insensitive
TTITLE8=Ronny Jordan - The Limelight
TTITLE9=Fausto Papetti -  Ebb Tide
TTITLE10=Kirk Whalum - Peaceful Hideaway
TTITLE11=Hiroshima - One Wish
TTITLE12=Herbie Hancock - People Music
TTITLE13=Stanley Clarke - Dejas Theme
TTITLE14=Doug Cameron - Rendevous
TTITLE15=George Benson - My Latin Brothers
EXTD=YEAR: 2005
EXTT0=
EXTT1=
EXTT2=
EXTT3=
EXTT4=
EXTT5=
EXTT6=
EXTT7=
EXTT8=
EXTT9=
EXTT10=
EXTT11=
EXTT12=
EXTT13=
EXTT14=
EXTT15=
PLAYORDER=
